<svg xmlns="http://www.w3.org/2000/svg" xmlns:xlink="http://www.w3.org/1999/xlink" width="500" zoomAndPan="magnify" viewBox="0 0 375 374.999991" height="500" preserveAspectRatio="xMidYMid meet" version="1.0"><defs><clipPath id="9a486adfa8"><path d="M 131.558594 22.386719 L 318 22.386719 L 318 351.695312 L 131.558594 351.695312 Z M 131.558594 22.386719 " clip-rule="nonzero"/></clipPath><clipPath id="3ddab39784"><path d="M 148.808594 22.386719 L 300.582031 22.386719 C 310.109375 22.386719 317.832031 30.109375 317.832031 39.636719 L 317.832031 334.246094 C 317.832031 343.773438 310.109375 351.496094 300.582031 351.496094 L 148.808594 351.496094 C 139.28125 351.496094 131.558594 343.773438 131.558594 334.246094 L 131.558594 39.636719 C 131.558594 30.109375 139.28125 22.386719 148.808594 22.386719 " clip-rule="nonzero"/></clipPath><clipPath id="d66da659b6"><path d="M 111.394531 22.597656 L 285.203125 22.597656 L 285.203125 351.496094 L 111.394531 351.496094 Z M 111.394531 22.597656 " clip-rule="nonzero"/></clipPath><clipPath id="054b80b3e4"><path d="M 57.167969 22.597656 L 111 22.597656 L 111 353 L 57.167969 353 Z M 57.167969 22.597656 " clip-rule="nonzero"/></clipPath><clipPath id="9499e4e44d"><path d="M 74.417969 22.597656 L 93.726562 22.597656 C 103.253906 22.597656 110.976562 30.320312 110.976562 39.847656 L 110.976562 335.363281 C 110.976562 344.890625 103.253906 352.613281 93.726562 352.613281 L 74.417969 352.613281 C 64.890625 352.613281 57.167969 344.890625 57.167969 335.363281 L 57.167969 39.847656 C 57.167969 30.320312 64.890625 22.597656 74.417969 22.597656 " clip-rule="nonzero"/></clipPath><clipPath id="671894a1a8"><path d="M 79.136719 22.597656 L 111.394531 22.597656 L 111.394531 351.574219 L 79.136719 351.574219 Z M 79.136719 22.597656 " clip-rule="nonzero"/></clipPath><clipPath id="ae538be574"><path d="M 131.890625 219.125 L 268.175781 219.125 L 268.175781 227.9375 L 131.890625 227.9375 Z M 131.890625 219.125 " clip-rule="nonzero"/></clipPath><clipPath id="317573ee36"><path d="M 131.890625 241.820312 L 268.175781 241.820312 L 268.175781 250.632812 L 131.890625 250.632812 Z M 131.890625 241.820312 " clip-rule="nonzero"/></clipPath><clipPath id="2612dd053f"><path d="M 131.890625 266.667969 L 268.175781 266.667969 L 268.175781 275.480469 L 131.890625 275.480469 Z M 131.890625 266.667969 " clip-rule="nonzero"/></clipPath><clipPath id="64d3051969"><path d="M 131.890625 291.515625 L 268.175781 291.515625 L 268.175781 300.328125 L 131.890625 300.328125 Z M 131.890625 291.515625 " clip-rule="nonzero"/></clipPath><clipPath id="f03686b85d"><path d="M 200.140625 22.386719 L 255.535156 22.386719 L 255.535156 151.273438 L 200.140625 151.273438 Z M 200.140625 22.386719 " clip-rule="nonzero"/></clipPath></defs><g clip-path="url(#9a486adfa8)"><g clip-path="url(#3ddab39784)"><path fill="#ff3131" d="M 131.558594 22.386719 L 317.660156 22.386719 L 317.660156 351.695312 L 131.558594 351.695312 Z M 131.558594 22.386719 " fill-opacity="1" fill-rule="nonzero"/></g></g><g clip-path="url(#d66da659b6)"><path fill="#ff3131" d="M 111.394531 22.597656 L 285.144531 22.597656 L 285.144531 351.371094 L 111.394531 351.371094 Z M 111.394531 22.597656 " fill-opacity="1" fill-rule="nonzero"/></g><g clip-path="url(#054b80b3e4)"><g clip-path="url(#9499e4e44d)"><path fill="#2b3b4e" d="M 57.167969 22.597656 L 111.3125 22.597656 L 111.3125 352.332031 L 57.167969 352.332031 Z M 57.167969 22.597656 " fill-opacity="1" fill-rule="nonzero"/></g></g><g clip-path="url(#671894a1a8)"><path fill="#2b3b4e" d="M 79.136719 22.597656 L 111.644531 22.597656 L 111.644531 351.609375 L 79.136719 351.609375 Z M 79.136719 22.597656 " fill-opacity="1" fill-rule="nonzero"/></g><g clip-path="url(#ae538be574)"><path fill="#ffffff" d="M 131.890625 219.125 L 268.195312 219.125 L 268.195312 228.074219 L 131.890625 228.074219 Z M 131.890625 219.125 " fill-opacity="1" fill-rule="nonzero"/></g><g clip-path="url(#317573ee36)"><path fill="#ffffff" d="M 131.890625 241.820312 L 268.195312 241.820312 L 268.195312 250.769531 L 131.890625 250.769531 Z M 131.890625 241.820312 " fill-opacity="1" fill-rule="nonzero"/></g><g clip-path="url(#2612dd053f)"><path fill="#ffffff" d="M 131.890625 266.667969 L 268.195312 266.667969 L 268.195312 275.617188 L 131.890625 275.617188 Z M 131.890625 266.667969 " fill-opacity="1" fill-rule="nonzero"/></g><g clip-path="url(#64d3051969)"><path fill="#ffffff" d="M 131.890625 291.515625 L 268.195312 291.515625 L 268.195312 300.464844 L 131.890625 300.464844 Z M 131.890625 291.515625 " fill-opacity="1" fill-rule="nonzero"/></g><g clip-path="url(#f03686b85d)"><path fill="#ffffff" d="M 200.035156 151.246094 L 200.035156 -67.703125 L 227.804688 -47.472656 L 255.535156 -67.703125 L 255.535156 151.246094 L 227.804688 131.015625 Z M 200.035156 151.246094 " fill-opacity="1" fill-rule="nonzero"/></g></svg>